<?xml version="1.0" encoding="UTF-8" standalone="no"?>
<svg
   xmlns:dc="http://purl.org/dc/elements/1.1/"
   xmlns:cc="http://creativecommons.org/ns#"
   xmlns:rdf="http://www.w3.org/1999/02/22-rdf-syntax-ns#"
   xmlns:svg="http://www.w3.org/2000/svg"
   xmlns="http://www.w3.org/2000/svg"
   xmlns:sodipodi="http://sodipodi.sourceforge.net/DTD/sodipodi-0.dtd"
   xmlns:inkscape="http://www.inkscape.org/namespaces/inkscape"
   width="210mm"
   height="297mm"
   viewBox="0 0 210 297"
   version="1.1"
   id="svg8"
   inkscape:version="1.0.1 (3bc2e813f5, 2020-09-07)"
   sodipodi:docname="facebook.svg">
  <defs
     id="defs2">
    <style
       id="style833">.cls-1{fill:#262626;}.cls-2,.cls-3{fill:#fff;}.cls-3{fill-rule:evenodd;}.cls-4{fill:#929292;}.cls-5{fill:#25d366;}.cls-6{fill:#ee1d52;}.cls-7{fill:#69c9d0;}.cls-8{fill:#e52d27;}.cls-9{fill:#d41d20;}.cls-10{fill:#55acee;}.cls-11{fill:#3b445c;}.cls-12{fill:#ea4b24;}.cls-13{fill:#ffea00;}.cls-14{fill:#ff4500;}.cls-15{fill:#bd081c;}.cls-16{fill:#0076b2;}.cls-17{fill:#d50060;}.cls-18{fill:#dc4b3e;}.cls-19{fill:#3f91cb;}.cls-20{fill:#3a5a99;}.cls-21{fill:#ea4c89;}.cls-22{fill:#05cc47;}.cls-23{fill:#1d6fed;}</style>
  </defs>
  <sodipodi:namedview
     id="base"
     pagecolor="#ffffff"
     bordercolor="#666666"
     borderopacity="1.0"
     inkscape:pageopacity="0.0"
     inkscape:pageshadow="2"
     inkscape:zoom="0.35"
     inkscape:cx="474.71222"
     inkscape:cy="-49.006391"
     inkscape:document-units="mm"
     inkscape:current-layer="layer1"
     inkscape:document-rotation="0"
     showgrid="false"
     inkscape:window-width="1267"
     inkscape:window-height="1198"
     inkscape:window-x="761"
     inkscape:window-y="82"
     inkscape:window-maximized="0" />
  <metadata
     id="metadata5">
    <rdf:RDF>
      <cc:Work
         rdf:about="">
        <dc:format>image/svg+xml</dc:format>
        <dc:type
           rdf:resource="http://purl.org/dc/dcmitype/StillImage" />
        <dc:title></dc:title>
      </cc:Work>
    </rdf:RDF>
  </metadata>
  <g
     inkscape:label="Layer 1"
     inkscape:groupmode="layer"
     id="layer1">
    <g
       id="Facebook-9"
       data-name="Facebook"
       transform="matrix(0.26458333,0,0,0.26458333,-23.591416,-53.326817)">
      <circle
         id="back-86"
         data-name="back"
         class="cls-4"
         cx="357.5"
         cy="357.5"
         r="42.5" />
      <path
         id="Facebook-10"
         data-name="Facebook"
         class="cls-2"
         d="m 378.18,334.26 h -41.36 a 2.56,2.56 0 0 0 -2.56,2.56 v 41.36 a 2.56,2.56 0 0 0 2.56,2.56 h 22.27 v -18 H 353 v -7 h 6.06 v -5.18 c 0,-6 3.66,-9.27 9,-9.27 a 48.14,48.14 0 0 1 5.41,0.28 v 6.27 h -3.71 c -2.92,0 -3.48,1.39 -3.48,3.42 v 4.48 h 6.95 l -0.91,7 h -6 v 18 h 11.85 a 2.56,2.56 0 0 0 2.56,-2.56 v -41.36 a 2.56,2.56 0 0 0 -2.55,-2.56 z" />
    </g>
  </g>
</svg>
