<?xml version="1.0" encoding="UTF-8" standalone="no"?>
<svg
   xmlns:dc="http://purl.org/dc/elements/1.1/"
   xmlns:cc="http://creativecommons.org/ns#"
   xmlns:rdf="http://www.w3.org/1999/02/22-rdf-syntax-ns#"
   xmlns:svg="http://www.w3.org/2000/svg"
   xmlns="http://www.w3.org/2000/svg"
   xmlns:sodipodi="http://sodipodi.sourceforge.net/DTD/sodipodi-0.dtd"
   xmlns:inkscape="http://www.inkscape.org/namespaces/inkscape"
   width="210mm"
   height="297mm"
   viewBox="0 0 210 297"
   version="1.1"
   id="svg8"
   sodipodi:docname="instagram.svg"
   inkscape:version="1.0.1 (3bc2e813f5, 2020-09-07)">
  <defs
     id="defs2">
    <style
       id="style833">.cls-1{fill:#262626;}.cls-2,.cls-3{fill:#fff;}.cls-3{fill-rule:evenodd;}.cls-4{fill:#929292;}.cls-5{fill:#25d366;}.cls-6{fill:#ee1d52;}.cls-7{fill:#69c9d0;}.cls-8{fill:#e52d27;}.cls-9{fill:#d41d20;}.cls-10{fill:#55acee;}.cls-11{fill:#3b445c;}.cls-12{fill:#ea4b24;}.cls-13{fill:#ffea00;}.cls-14{fill:#ff4500;}.cls-15{fill:#bd081c;}.cls-16{fill:#0076b2;}.cls-17{fill:#d50060;}.cls-18{fill:#dc4b3e;}.cls-19{fill:#3f91cb;}.cls-20{fill:#3a5a99;}.cls-21{fill:#ea4c89;}.cls-22{fill:#05cc47;}.cls-23{fill:#1d6fed;}</style>
  </defs>
  <sodipodi:namedview
     id="base"
     pagecolor="#ffffff"
     bordercolor="#666666"
     borderopacity="1.0"
     inkscape:pageopacity="0.0"
     inkscape:pageshadow="2"
     inkscape:zoom="0.35"
     inkscape:cx="474.71222"
     inkscape:cy="-49.006391"
     inkscape:document-units="mm"
     inkscape:current-layer="layer1"
     inkscape:document-rotation="0"
     showgrid="false"
     inkscape:window-width="1267"
     inkscape:window-height="1198"
     inkscape:window-x="761"
     inkscape:window-y="82"
     inkscape:window-maximized="0" />
  <metadata
     id="metadata5">
    <rdf:RDF>
      <cc:Work
         rdf:about="">
        <dc:format>image/svg+xml</dc:format>
        <dc:type
           rdf:resource="http://purl.org/dc/dcmitype/StillImage" />
        <dc:title></dc:title>
      </cc:Work>
    </rdf:RDF>
  </metadata>
  <g
     inkscape:label="Layer 1"
     inkscape:groupmode="layer"
     id="layer1">
    <g
       id="Instagram-5"
       data-name="Instagram"
       transform="matrix(0.26458333,0,0,0.26458333,53.511911,-42.097681)">
      <circle
         id="back-83"
         data-name="back"
         class="cls-4"
         cx="42.5"
         cy="462.5"
         r="42.5" />
      <path
         class="cls-2"
         d="m 42.5,443 c 6.35,0 7.11,0 9.62,0.14 a 12.93,12.93 0 0 1 4.42,0.82 7.91,7.91 0 0 1 4.51,4.51 12.93,12.93 0 0 1 0.82,4.42 c 0.12,2.51 0.14,3.27 0.14,9.62 0,6.35 0,7.11 -0.14,9.62 a 12.93,12.93 0 0 1 -0.82,4.42 7.91,7.91 0 0 1 -4.51,4.51 12.93,12.93 0 0 1 -4.42,0.82 c -2.51,0.12 -3.26,0.14 -9.62,0.14 -6.36,0 -7.11,0 -9.62,-0.14 a 12.93,12.93 0 0 1 -4.42,-0.82 7.91,7.91 0 0 1 -4.46,-4.52 12.93,12.93 0 0 1 -0.82,-4.42 c -0.12,-2.51 -0.14,-3.27 -0.14,-9.62 0,-6.35 0,-7.11 0.14,-9.62 a 12.93,12.93 0 0 1 0.82,-4.42 7.91,7.91 0 0 1 4.46,-4.46 12.93,12.93 0 0 1 4.42,-0.82 c 2.51,-0.12 3.27,-0.14 9.62,-0.14 m 0,-4.29 c -6.46,0 -7.27,0 -9.81,0.14 a 17.49,17.49 0 0 0 -5.78,1.11 12.1,12.1 0 0 0 -7,7 17.49,17.49 0 0 0 -1.11,5.78 c -0.11,2.54 -0.14,3.35 -0.14,9.81 0,6.46 0,7.27 0.14,9.81 a 17.49,17.49 0 0 0 1.2,5.69 12.1,12.1 0 0 0 7,7 17.49,17.49 0 0 0 5.78,1.11 c 2.54,0.11 3.35,0.14 9.81,0.14 6.46,0 7.27,0 9.81,-0.14 a 17.49,17.49 0 0 0 5.78,-1.11 12.1,12.1 0 0 0 7,-7 17.49,17.49 0 0 0 1.11,-5.78 c 0.11,-2.54 0.14,-3.35 0.14,-9.81 0,-6.46 0,-7.27 -0.14,-9.81 a 17.49,17.49 0 0 0 -1.11,-5.78 12.1,12.1 0 0 0 -7,-7 17.49,17.49 0 0 0 -5.78,-1.11 c -2.54,-0.11 -3.35,-0.14 -9.81,-0.14 z"
         id="path1357" />
      <path
         class="cls-2"
         d="M 42.5,450.28 A 12.22,12.22 0 1 0 54.72,462.5 12.22,12.22 0 0 0 42.5,450.28 Z m 0,20.15 a 7.93,7.93 0 1 1 7.93,-7.93 7.93,7.93 0 0 1 -7.93,7.93 z"
         id="path1359" />
      <circle
         class="cls-2"
         cx="55.200001"
         cy="449.79999"
         r="2.8599999"
         id="circle1361" />
    </g>
  </g>
</svg>
